<svg xmlns="http://www.w3.org/2000/svg" xmlns:xlink="http://www.w3.org/1999/xlink" viewBox="0 0 699.775 453.298"><defs><radialGradient id="a" cx="233.459" cy="56.473" r="82.249" gradientTransform="matrix(1, 0, 0, 1, -20.658, 36.046)" gradientUnits="userSpaceOnUse"><stop offset="0" stop-color="#ed1c24"/><stop offset="0.651" stop-color="#be1e2d"/><stop offset="0.826" stop-color="#7b1e2d"/><stop offset="1" stop-color="#691e2d"/></radialGradient><linearGradient id="b" x1="230.692" y1="81.798" x2="230.692" y2="79.538" gradientUnits="userSpaceOnUse"><stop offset="0" stop-color="#fff"/><stop offset="1" stop-color="#231f20"/></linearGradient><radialGradient id="c" cx="162.977" cy="86.669" r="113.444" gradientTransform="translate(-8.725 49.923)" xlink:href="#a"/><linearGradient id="d" x1="178.93" y1="121.811" x2="178.93" y2="118.694" xlink:href="#b"/><radialGradient id="e" cx="174.995" cy="300.512" fx="433.1145303834557" fy="300.51156214220464" r="260.727" gradientTransform="translate(41.603 40.983)" gradientUnits="userSpaceOnUse"><stop offset="0" stop-color="#ed1c24"/><stop offset="0.199" stop-color="#7b1e2d"/><stop offset="0.651" stop-color="#be1e2d"/><stop offset="0.826" stop-color="#7b1e2d"/><stop offset="1" stop-color="#691e2d"/></radialGradient><linearGradient id="f" x1="241.287" y1="326.711" x2="241.287" y2="323.594" xlink:href="#b"/><radialGradient id="g" cx="159.777" cy="101.889" r="76.163" gradientUnits="userSpaceOnUse"><stop offset="0" stop-color="#be1e2d"/><stop offset="0.123" stop-color="#bf2231"/><stop offset="0.255" stop-color="#c32f3d"/><stop offset="0.393" stop-color="#c94552"/><stop offset="0.534" stop-color="#d2636e"/><stop offset="0.678" stop-color="#dd8b92"/><stop offset="0.824" stop-color="#ebbabf"/><stop offset="0.968" stop-color="#fbf2f3"/><stop offset="1" stop-color="#fff"/></radialGradient><radialGradient id="h" cx="247.364" cy="93.865" r="131.36" gradientTransform="translate(-7.834 28.594)" gradientUnits="userSpaceOnUse"><stop offset="0" stop-color="#ed1c24" stop-opacity="0.8"/><stop offset="0.651" stop-color="#be1e2d"/><stop offset="0.826" stop-color="#7b1e2d"/><stop offset="1" stop-color="#691e2d"/></radialGradient><linearGradient id="i" x1="268.106" y1="105.34" x2="268.106" y2="101.732" xlink:href="#b"/><radialGradient id="j" cx="666.026" cy="388.952" r="135.421" gradientTransform="matrix(0, 1, -1, 0, 1186.356, -332.07)" gradientUnits="userSpaceOnUse"><stop offset="0" stop-color="#f33" stop-opacity="0.9"/><stop offset="0.651" stop-color="#be1e2d"/><stop offset="0.826" stop-color="#7b1e2d"/><stop offset="1" stop-color="#691e2d"/></radialGradient><linearGradient id="k" x1="713.306" y1="344.881" x2="713.306" y2="339.904" xlink:href="#b"/><radialGradient id="l" cx="149.389" cy="156.912" r="234.213" gradientTransform="matrix(1, 0, 0, 1, 14.32, 46.875)" xlink:href="#a"/></defs><title>box_lightbox</title><g style="isolation:isolate"><circle cx="230.7" cy="125.477" r="41.605" transform="translate(-134.636 -21.23) rotate(-13.707)" style="opacity:0.7000000000000001;fill:url(#a)"/><path d="M221.989,82.149A5.077,5.077,0,0,0,222.138,81l.022.029V79.65h17.086v1.375a5.291,5.291,0,0,0,.149,1.124Z" transform="translate(-111.474 -79.471)" style="mix-blend-mode:multiply;fill:url(#b)"/><path d="M240.164,80.669v7.374l0-.007c-.7,0-.462-2.646-1.157-2.646s-.462,2.646-1.157,2.646c-.267,0-.4-.389-.5-.869-.158-.771-.233-1.777-.662-1.777-.28,0-.411.431-.511.944-.148.76-.233,1.7-.647,1.7-.7,0-.462-2.646-1.16-2.646s-.462,2.646-1.157,2.646-.693-2.646-1.389-2.646-.7,2.646-1.391,2.646-.7-2.646-1.391-2.646-.7,2.646-1.389,2.646-.462-2.646-1.157-2.646-.462,2.646-1.158,2.646-.462-2.646-1.158-2.646-.228,2.646-.924,2.646-.462-2.646-1.158-2.646-.228,2.646-.924,2.646V80.669a1.36,1.36,0,0,1,1.48-1.2h16.029A1.36,1.36,0,0,1,240.164,80.669Z" transform="translate(-111.474 -79.471)" style="fill:#f9cd75"/><circle cx="178.942" cy="182.057" r="57.386" transform="translate(-149.517 -31.885) rotate(-13.707)" style="opacity:0.9500000000000001;fill:url(#c)"/><path d="M166.926,122.3a7.009,7.009,0,0,0,.205-1.582l.031.04v-1.906H190.73v1.9a7.244,7.244,0,0,0,.2,1.551Z" transform="translate(-111.474 -79.471)" style="mix-blend-mode:multiply;fill:url(#d)"/><path d="M191.995,119.357v10.17l-.005-.01c-.959,0-.638-3.649-1.6-3.649s-.637,3.649-1.6,3.649c-.368,0-.548-.536-.685-1.2-.217-1.064-.321-2.452-.913-2.452-.386,0-.567.595-.7,1.3-.205,1.048-.322,2.347-.892,2.347-.958,0-.637-3.649-1.6-3.649s-.638,3.649-1.6,3.649-.957-3.649-1.915-3.649-.959,3.649-1.919,3.649-.959-3.649-1.918-3.649-.959,3.649-1.915,3.649-.637-3.649-1.6-3.649-.638,3.649-1.6,3.649-.637-3.649-1.6-3.649-.316,3.649-1.274,3.649-.638-3.649-1.6-3.649-.315,3.649-1.274,3.649V119.357a1.876,1.876,0,0,1,2.041-1.652h22.109A1.876,1.876,0,0,1,191.995,119.357Z" transform="translate(-111.474 -79.471)" style="fill:#e5e5e5"/><circle cx="241.298" cy="386.957" r="57.386" transform="translate(-196.294 -11.273) rotate(-13.707)" style="opacity:0.8;fill:url(#e)"/><path d="M229.283,327.2a7.009,7.009,0,0,0,.205-1.582l.031.04v-1.906h23.568v1.9a7.242,7.242,0,0,0,.2,1.551Z" transform="translate(-111.474 -79.471)" style="mix-blend-mode:multiply;fill:url(#f)"/><path d="M254.351,324.257v10.17l-.005-.01c-.959,0-.638-3.649-1.6-3.649s-.637,3.649-1.6,3.649c-.368,0-.548-.536-.685-1.2-.217-1.064-.321-2.452-.913-2.452-.386,0-.567.595-.7,1.3-.205,1.048-.322,2.347-.892,2.347-.958,0-.637-3.649-1.6-3.649s-.638,3.649-1.6,3.649-.957-3.649-1.915-3.649-.959,3.649-1.919,3.649-.959-3.649-1.918-3.649-.959,3.649-1.915,3.649-.637-3.649-1.6-3.649-.638,3.649-1.6,3.649-.637-3.649-1.6-3.649-.316,3.649-1.274,3.649-.638-3.649-1.6-3.649-.315,3.649-1.275,3.649V324.257A1.876,1.876,0,0,1,230.2,322.6h22.109A1.876,1.876,0,0,1,254.351,324.257Z" transform="translate(-111.474 -79.471)" style="fill:#e5e5e5"/><circle cx="159.777" cy="101.889" r="76.163" style="mix-blend-mode:multiply;fill:url(#g)"/><circle cx="268.12" cy="175.101" r="66.448" transform="translate(-145.329 -10.952) rotate(-13.707)" style="opacity:0.5;fill:url(#h)"/><path d="M254.206,105.9a8.1,8.1,0,0,0,.238-1.831l.035.046V101.91h27.29v2.2a8.417,8.417,0,0,0,.237,1.8Z" transform="translate(-111.474 -79.471)" style="mix-blend-mode:multiply;fill:url(#i)"/><path d="M283.233,102.552v11.777l-.006-.011c-1.111,0-.738-4.226-1.849-4.226s-.738,4.226-1.848,4.226c-.426,0-.635-.621-.792-1.387-.252-1.232-.372-2.839-1.057-2.839-.447,0-.656.689-.816,1.508-.237,1.213-.373,2.718-1.033,2.718-1.11,0-.737-4.226-1.852-4.226s-.738,4.226-1.848,4.226-1.108-4.226-2.218-4.226-1.111,4.226-2.222,4.226-1.11-4.226-2.221-4.226-1.111,4.226-2.218,4.226-.738-4.226-1.848-4.226-.739,4.226-1.849,4.226-.738-4.226-1.849-4.226-.365,4.226-1.476,4.226-.739-4.226-1.85-4.226-.365,4.226-1.476,4.226V102.552a2.173,2.173,0,0,1,2.363-1.913h25.6A2.172,2.172,0,0,1,283.233,102.552Z" transform="translate(-111.474 -79.471)" style="fill:#efcaaf"/><path d="M278.738,93.639v12.292c-.252-1.232-.372-2.839-1.057-2.839-.447,0-.656.689-.816,1.508V93.639Z" transform="translate(-111.474 -79.471)" style="fill:#f7fc97"/><circle cx="744.785" cy="362.555" r="66.449" transform="matrix(0.438, -0.899, 0.899, 0.438, -18.613, 794.108)" style="opacity:0.9;fill:url(#j)"/><rect x="165.391" y="10.529" width="408.135" height="415" style="fill:#f7f7f7"/><path d="M694.348,512.508H264.606V82.767H694.348Zm-408.742-21H673.348V103.767H285.606Z" transform="translate(-111.474 -79.471)" style="fill:#8a6053"/><circle cx="713.325" cy="441.1" r="91.648" transform="matrix(0.972, -0.237, 0.237, 0.972, -195.68, 102.12)" style="fill:#ec5253;opacity:0.96"/><path d="M694.135,345.656a11.17,11.17,0,0,0,.328-2.525l.049.063V340.15h37.638v3.029a11.7,11.7,0,0,0,.328,2.476Z" transform="translate(-111.474 -79.471)" style="mix-blend-mode:multiply;fill:url(#k)"/><path d="M734.171,341.381v16.243l-.01-.015c-1.531,0-1.018-5.829-2.549-5.829s-1.018,5.829-2.55,5.829c-.587,0-.876-.856-1.092-1.913-.348-1.7-.514-3.916-1.458-3.916-.617,0-.906.95-1.126,2.08-.327,1.674-.514,3.749-1.424,3.749-1.532,0-1.018-5.829-2.555-5.829s-1.018,5.829-2.55,5.829-1.527-5.829-3.059-5.829-1.531,5.829-3.063,5.829-1.532-5.829-3.063-5.829-1.531,5.829-3.059,5.829-1.018-5.829-2.549-5.829-1.019,5.829-2.551,5.829-1.018-5.829-2.55-5.829-.5,5.829-2.035,5.829-1.019-5.829-2.55-5.829-.5,5.829-2.036,5.829V341.381c0-1.458,1.458-2.638,3.259-2.638h35.31C732.714,338.743,734.171,339.923,734.171,341.381Z" transform="translate(-111.474 -79.471)" style="fill:#e5e5e5"/><path d="M759.9,290.005v11.777l-.007-.011c-1.11,0-.738-4.226-1.849-4.226s-.737,4.226-1.849,4.226c-.426,0-.635-.621-.791-1.387-.252-1.232-.373-2.839-1.058-2.839-.446,0-.656.689-.815,1.508-.238,1.213-.373,2.718-1.033,2.718-1.11,0-.737-4.226-1.852-4.226s-.738,4.226-1.849,4.226-1.107-4.226-2.218-4.226-1.111,4.226-2.222,4.226-1.11-4.226-2.221-4.226-1.11,4.226-2.218,4.226-.738-4.226-1.848-4.226-.739,4.226-1.85,4.226-.738-4.226-1.849-4.226-.365,4.226-1.476,4.226-.738-4.226-1.85-4.226-.365,4.226-1.476,4.226V290.005a2.173,2.173,0,0,1,2.363-1.913h25.6A2.172,2.172,0,0,1,759.9,290.005Z" transform="translate(-111.474 -79.471)" style="fill:#efcaaf"/><circle cx="203.143" cy="276.403" r="91.648" transform="translate(-171.184 -23.463) rotate(-13.707)" style="opacity:0.9500000000000001;fill:url(#l)"/><path d="M223.989,176.685v16.243l-.009-.015c-1.532,0-1.018-5.829-2.55-5.829s-1.018,5.829-2.549,5.829c-.587,0-.876-.857-1.092-1.914-.348-1.7-.514-3.916-1.458-3.916-.617,0-.906.95-1.126,2.08-.328,1.674-.514,3.749-1.424,3.749-1.532,0-1.018-5.829-2.555-5.829s-1.018,5.829-2.55,5.829-1.527-5.829-3.059-5.829-1.532,5.829-3.064,5.829-1.532-5.829-3.063-5.829-1.532,5.829-3.059,5.829-1.018-5.829-2.549-5.829-1.019,5.829-2.55,5.829-1.018-5.829-2.55-5.829-.5,5.829-2.035,5.829-1.019-5.829-2.55-5.829-.5,5.829-2.036,5.829V176.685c0-1.458,1.458-2.638,3.259-2.638h35.31C222.532,174.047,223.989,175.227,223.989,176.685Z" transform="translate(-111.474 -79.471)" style="fill:#f9cd75"/></g></svg>