<svg xmlns="http://www.w3.org/2000/svg" viewBox="0 0 1000 1000"><title>box_background</title><rect width="1000" height="1000" style="fill:#9b1600"/><path d="M450.5,590.2a8.938,8.938,0,1,0-10.9-6.4A9,9,0,0,0,450.5,590.2Z" transform="translate(0.1 -1.5)" style="fill:#fff"/><path d="M824.1,465.3a5.651,5.651,0,0,0-6.8,2.7c-1.8,3.5-2.8,7.4-4.5,10.9a119.686,119.686,0,0,1-11,18.6c-1.1-19.6-7.5-40.3-19.1-56.4-2.7-3.8-8.8-3.4-10.1,1.5-.9,3.3-1,7-1.6,10.4-.6,3.5-1.2,7.1-2,10.6a152.217,152.217,0,0,1-11.2,34.2,148.761,148.761,0,0,1-18,28.5,92.63,92.63,0,0,1-10.7,11.8,20.634,20.634,0,0,1-6.2,4.4c-.6-3.4.2-7.2.9-10.6a133.388,133.388,0,0,1,3.9-14.1,256.756,256.756,0,0,1,10.1-25.6c1.7-3.7,3.9-7.4,5.4-11.3a5.574,5.574,0,0,0-6.5-7.3c-3.7.9-5.1,5.8-6.5,8.8-7.8-6.6-18.9-3-26.2,2.4-6.3,4.6-11.3,11-15.9,17.2a127.006,127.006,0,0,0-11.4,18.6c-3.1,6.5-5.4,13.4-8.6,19.9a95.282,95.282,0,0,1-8.8,14.7c-1.2,1.5-10.7,13.2-12.6,8.1-1.1-2.9-.5-6.5.1-9.4,1.3-6.1,4.1-11.8,7.3-17.2,4.8-8.3,11.1-18.1,11.8-28,.5-7-4.8-11.4-11.7-9.8-8.4,1.8-16.3,8.3-22.2,14.4-5.8-13.3-25.5.7-31.9,6.5,1.1-2.5,1.3-5.1-.8-7.1a5.524,5.524,0,0,0-7.8.1c-2.2,2.3-3.2,6.5-4.3,9.4-1.5,3.9-3,7.7-4.4,11.6-1.3,3.7-2.5,7.4-3.7,11.1-.6,1.9-1.2,3.8-1.7,5.7A32.817,32.817,0,0,1,575,556c-2.9,6.4-6,12.7-9.4,18.8-3.5,6.3-7.2,12.8-12.3,18a15.428,15.428,0,0,1-3.1,2.5c-1.8,1.1-2-4.4-2.1-5.5-.5-7,1.1-13.9,3-20.5,2.1-7.2,4.7-14.2,7.5-21.2a449.384,449.384,0,0,1,19.8-42.2c1.8-3.5,3.7-6.9,5.6-10.3.5-.9,1-1.7,1.4-2.6,1,0,2,0,3-.1,2.4-.1,4.7-.1,7.1-.2a145.67,145.67,0,0,0,22.9-2.3,69.241,69.241,0,0,0,30.2-14.3c16.5-13.7,25.8-33.8,33.7-53.3,9.8-24.3,19.7-48.4,31.6-71.8,2.4-4.7,4.8-9.4,7.5-14a8.713,8.713,0,0,0,1.6-4.4c-.3-5.4-7.5-7.1-10.3-2.6-7.3,11.8-13.1,24.6-18.9,37.1-3.2,7-6.3,14.1-9.5,21.2-2.7,6.1-5.7,12.3-10.9,16.8a16.78,16.78,0,0,1-9.1,4.3c-1.3.1-1.9.2-2.3-1.1a21.091,21.091,0,0,1-.4-7.5c.6-8.1,3.9-15.2,6.9-22.7,3.6-8.9,7.2-17.7,11.5-26.2,1.4-2.7,4.2-6.1,3.4-9.4a5.569,5.569,0,0,0-6-4.2c-3.6.4-4.9,4-6.4,6.8-2.5,4.7-4.7,9.6-6.8,14.5-2,4.6-3.6,9.5-5.9,14-2.9,5.6-4.5,11.7-7,17.5-3.2,7.5-6.7,15.1-11.5,21.6-1.6,2.2-4.2,5.9-7.1,6.6-1.7.5-2.4-7.1-2.5-8a39.928,39.928,0,0,1,1-10.9,93.832,93.832,0,0,1,9.1-23.6,112.732,112.732,0,0,1,6.2-10.6c1.6-2.5,3.2-5.3.9-8.1-1.6-2-3.8-2.1-6.1-1.7a40.067,40.067,0,0,1-8.5.5c-4.2-.7-7.9-2.4-8-7.1,0-4.6-5.3-9.8-10.1-7.7a9.162,9.162,0,0,0-5.1,6.1c-.4,1.9.7,4.1.2,5.8-2.9,10.5-7.3,20.7-11.9,30.6-3.4,7.3-6.9,14.5-10.6,21.6-2.9,5.5-5.9,11-9.2,16.2A88.688,88.688,0,0,1,572,431c-2,2.5-4.4,5.5-7.4,6.9-2.3-4.6-1.3-12-.3-16.9,1.6-7.9,4.8-15.5,8.4-22.7,1.7-3.4,3.5-6.7,5.5-9.9,1.7-2.8,4.7-5.8,3.2-9.3-2.3-5-8.8-2.3-12.9-2.3-2,0-4.7,0-6.5-1.1a6.341,6.341,0,0,1-2.3-1.6c-1.3-1.5-1.1-2.6-1.3-4.4-.7-5.9-7.1-10.2-12.5-6.3-5,3.6-3,10.5-.6,15a153.282,153.282,0,0,1-6.9,19.7,197.125,197.125,0,0,1-22.7,40.6,93.506,93.506,0,0,1-13.9,15.6c-3.5,3.1-7.6,6.2-12.3,7.4-6.5,1.6-12-3.3-13.4-9.4-.2-.7-.9-3.7-.2-3.9s1.4-.3,2.1-.5c1.8-.5,3.5-1,5.3-1.6a66.15,66.15,0,0,0,24.5-14.5,54.167,54.167,0,0,0,10.4-14.2c2.9-5.8,5.5-12.6,5.3-19.1-.1-4.7-2.4-9-7-10.7-4.9-1.8-10.4-.1-14.8,2.1-11.7,5.7-20.8,16-27.4,27.1a71.918,71.918,0,0,0-8.7,21.3c-1.7,7.6-4.8,15.2-7.6,22.5a311.932,311.932,0,0,1-19.6,42.3c-5.4,9.5-11.3,19.7-19.4,27.2a13.6,13.6,0,0,1-4.6,3.2c-1.2.4-1.9-5.3-2-5.9-1.3-10.6.3-21.8,2.1-32.2,3.9-22.1,11.2-43.7,19.5-64.5,7.8-19.6,16.8-38.8,26.4-57.7,5.8-11.3,11.8-22.5,18.2-33.4.5-.9,1-1.7,1.5-2.5a5.578,5.578,0,0,0-4.6-8.6c-2.6,0-4.6,2-6.5,3.5-2.1,1.6-4.1,3.4-6.1,5.2a146.14,146.14,0,0,0-11.7,11.9c-16.1,17.9-29.4,38.3-41.7,59C397.8,428,387,448.3,377,469c5.8-27.7,15.2-54.6,25.8-80.8,5.4-13.2,11-26.3,17.4-39,2.8-5.5-4.4-10.7-8.8-6.4-.9.8-1.7,1.7-2.5,2.5-4.6,4.6-9,9.5-13.2,14.4a427.876,427.876,0,0,0-44.5,60.9c-8.3,13.7-15.5,28.1-24.1,41.6a272.123,272.123,0,0,1-25.3,34.2c-17.8,20.2-41.2,39.1-68.9,41.7-12.1,1.1-25.6-.9-34.4-10a26.563,26.563,0,0,1-7.3-16.6,28.685,28.685,0,0,1,1.1-9.7,27.2,27.2,0,0,1,1.9-4.7c.8-1.6,2-3,2.1-4.9a5.541,5.541,0,0,0-4.6-5.8c-3.6-.6-5.5,2.1-7,4.9a39,39,0,0,0-4.6,20.4,38.161,38.161,0,0,0,18.5,30.5c15.4,9.4,35.3,8.7,52.1,3.5,15.9-4.9,30.1-14.1,42.5-25,19.1-16.8,34.4-37.8,47.5-59.5,8.4-13.9,15.7-28.3,24.3-42,7.5-11.8,15.5-23.2,24.1-34.2,2-2.6,4.1-5.2,6.2-7.7-10.5,24.9-19.7,50.5-26.3,76.8a256.659,256.659,0,0,0-7.2,41.9c-.2,2.9-1,6.5-.3,9.4a5.577,5.577,0,0,0,7,4.1c2.2-.7,3.2-2.4,4.1-4.4a798.561,798.561,0,0,1,52.3-100.6,408.433,408.433,0,0,1,27.2-39.2,641.239,641.239,0,0,0-31.7,70.2c-9.4,24.9-17.5,51.2-19,78-.5,8.1-1,17.5,3,24.9,4.5,8.4,13.6,6.9,20,1.8,10-7.8,17-19.7,23.1-30.5a323.9,323.9,0,0,0,20.2-43c.5-1.2.9-2.4,1.4-3.7,6.6,9.8,18.3,12.2,28.7,7.3,9.5-4.5,17.2-12.7,23.6-20.8a198.47,198.47,0,0,0,33-62.7,23.112,23.112,0,0,0,10.7,2.2c-6.5,11.9-12.1,25-12.6,38.8-.2,6.1.1,14,4.9,18.5,5.8,5.5,13.5,1.6,18.4-3.1,9.7-9.2,16.3-21.9,22.2-33.7,4.7-9.3,9.5-18.7,13.5-28.3,2.2-5.3,4.4-10.7,6.4-16.1a23.627,23.627,0,0,0,13.9,4.1c-7,12.8-13.2,27.3-12.6,42.2.3,8.2,3.9,19.7,14.2,18.9,8.7-.7,14.8-9.8,18.9-16.5,3.6,7.9,12.5,7.8,19.6,5.1-6.4,16-13.6,32.8-26.1,45.1a57.288,57.288,0,0,1-21.2,13.3c-10.5,3.7-21.8,4.2-32.8,4.6,4.2-7,8.6-13.9,13.2-20.6,2-3,4.1-5.9,6.3-8.9,1.9-2.5,3.8-5.2,1.9-8.3a5.466,5.466,0,0,0-7-2.1c-2.8,1.3-4.7,5.1-6.4,7.5-4.4,6.2-8.5,12.5-12.6,18.9-2.1,3.4-4.2,6.8-6.2,10.2-.5.9-1,1.8-1.5,2.6-.7,1.2-1.2.9-2.6.9h-7.1c-7.2,0-14.5-.2-21.7-.1-12.6.1-25.5.6-37.7,4-10.5,2.9-20.1,8.3-26.6,17.3-1.6,2.2-3.3,4.5-2.5,7.4a5.669,5.669,0,0,0,7.5,3.5c2.4-1,3.4-3.7,5-5.7a30.045,30.045,0,0,1,5.5-5.2c8.7-6.4,20-8.4,30.5-9.4,14.3-1.3,28.7-.8,43-.7a484.2,484.2,0,0,0-21.6,44c-2.9,6.8-5.3,14-8.3,20.7a114.872,114.872,0,0,1-11.7,20c-1.1-19.6-7.5-40.3-19.1-56.4-2.8-3.9-9.2-3.3-10.2,1.8-.6,3.3-.6,6.7-1.1,10-.5,3.7-1.2,7.4-2,11a156.545,156.545,0,0,1-15.1,40.8c-6.6,12.5-14.9,24.6-25,34.6-2.1,2-4.3,4.2-6.9,5.5-1.1.5-1.1-.5-1.3-1.6a30.062,30.062,0,0,1-.2-6.7c.7-13.3,4.9-25.9,9.9-38.1,2.3-5.8,4.8-11.4,7.5-17a12.324,12.324,0,0,0,1.7-4.5,5.722,5.722,0,0,0-5.1-6c-4.7-.4-6.1,4.5-7.7,7.9-3.3,6.8-6.1,13.9-8.9,20.9l-7.2,18.3c-4.4,11.1-8.5,22.6-15.7,32.2-1.8,2.4-4.1,5.4-7.1,6.5-2.7,1.1-3.7-3.6-4.1-5.4-1.4-6.5-.2-13.4,1.7-19.7a113.343,113.343,0,0,1,9.5-21.7c1.7-3,3.4-6,5.3-8.8,1.6-2.5,1.7-5.7-.9-7.7-1.7-1.2-3.5-1-5.5-.7a29.555,29.555,0,0,1-8.9.3c-4-.5-7.1-3-7.2-7a7.728,7.728,0,0,0-10.4-7.2c-5.5,2.1-5.4,8.1-3.8,12.7.3,1,2,3.3,1.7,4.2-.2.7-.5,1.4-.7,2-.6,1.6-1.2,3.2-1.8,4.9-1.6,4.3-3.4,8.5-5.2,12.7-5.4,12.2-11.4,24.2-18,35.9a119.391,119.391,0,0,1-10.7,16.5,28.649,28.649,0,0,1-6.6,6.4c-.9-8.3,3.3-17.7,6.6-25,4.4-9.8,9.2-20,11.1-30.6.7-4.2,1-9-2-12.3-3.6-4-9.1-3-13.5-1.2a59.534,59.534,0,0,0-16.5,10.1q11.85-30.3,26.2-59.6c2.7-5.3-4.2-10.7-8.6-6.6-1.5,1.3-2.3,3.8-3.1,5.5-4.1,8.5-8.1,17.1-11.9,25.8-6,13.5-11.7,27.2-16.9,41.1-2.3,6.2-4.2,12.5-7.1,18.5-2.2,4.6-4.5,9.1-6.8,13.7-13.8,27.2-28.9,53.9-46.6,78.7a243.577,243.577,0,0,1-25.1,30.5c-6.5,6.5-13.6,12.8-22,16.8-5.7,2.8-12.7,4.6-18.9,2.2-10.6-4.1-12.7-18.4-13.4-28.2-.8-13.4,1.1-26.9,4.2-40a230.963,230.963,0,0,1,15.6-44.8c11.6-25,27.5-48.8,48.6-66.8a132.245,132.245,0,0,1,33.2-21c5.7-2.4,13.5-5.5,19.8-3.5,7.4,2.3,3.4,13.1,1.3,17.8-1.5,3.3-3.7,6.1-5.3,9.3a5.556,5.556,0,0,0,2.4,7.4,5.744,5.744,0,0,0,7.1-1.8,66.383,66.383,0,0,0,6-10.7c4.1-9,6.5-21.6-1.9-29-3.5-3.1-8.2-4.4-12.8-4.5-9.1-.2-18.1,3.3-26.1,7.3a148.336,148.336,0,0,0-33.4,22.5c-20.7,18.5-36.6,42.1-48.4,67.1-12.5,26.7-22.1,56.8-21.6,86.6.2,11.7,2,24.6,9.3,34.1a26.954,26.954,0,0,0,23.8,10.3c17.8-1.3,32.9-15.5,44.4-27.8,21.9-23.5,38.9-51.5,54.5-79.4-.7,4-1,9.5,4.6,9.9,5.7.3,5.9-5.8,6.6-9.8a280.8,280.8,0,0,1,8.7-33.9c.9-2.9,1.8-5.7,2.8-8.6a16.689,16.689,0,0,1,2.8-4.6,108.035,108.035,0,0,1,7.6-8.9c6.2-6.6,13.1-12.3,21.6-15.6-.8,7.8-4.4,15.6-7.4,22.6-4.9,11.6-12,24.6-10.6,37.7.4,3.6,1.8,7.2,4.9,9.1,4,2.5,8.5,1.3,12.2-1.1,4.6-3,8.2-7.3,11.4-11.7,4.7-6.3,8.5-13.3,12.2-20.2a366.182,366.182,0,0,0,22.2-48,23.272,23.272,0,0,0,10.4,2c-7.9,14.4-15.8,32.6-11.5,49.4,2.3,8.9,10,16.1,19.5,11.8,8.1-3.7,13.4-12.5,17.5-20,1.2,4.6,4.2,8.8,9.2,9.4,4.8.6,9.4-2.4,12.9-5.3,8.9-7.2,16.2-17.1,22.5-26.6a169.941,169.941,0,0,0,25.8-63.4,99.075,99.075,0,0,1,9.5,40.7,50.551,50.551,0,0,1-.2,5.5c-.2,2.2-.2,3.3-1.9,4.8a114.77,114.77,0,0,1-9.2,7.8,95.189,95.189,0,0,1-13.9,8.7c-2.1,1.1-5.5,1.9-6.9,4a5.612,5.612,0,0,0,.6,7.2c2.4,2.3,7.1,2.2,10.3,2.2,11.5.2,21.8-5.3,27.2-15.6a43.484,43.484,0,0,0,3.4-9.1c.4-1.7,2.3-3,3.4-4.3,1.3-1.5,2.6-3,3.8-4.5.2,7,2.4,16.9,10.8,18.1,8.7,1.3,15.8-8.2,20.1-14.4-.4,2.4-.5,4.6,1.4,6.4a5.734,5.734,0,0,0,6.7.8c2.5-1.5,2.7-4.2,3.1-6.8.6-3.6,1.3-7.2,2-10.7,1.5-7.1,3-14,5.7-20.8a110.887,110.887,0,0,1,12.2-23.1c5.5-7.9,13.5-16.1,23-18.9-.6,3.8-2.3,7.4-3.8,10.8-3.3,7.1-7.2,13.8-10.3,20.9-4.2,9.4-7.9,19.3-9.7,29.5a40.192,40.192,0,0,0-.6,5,5.576,5.576,0,0,0,9.9,3.7c1.2-1.6,1.1-3.7,1.4-5.7.5-3.2,1.3-6.3,2.1-9.4a139.528,139.528,0,0,1,15.8-35.5c7-11.1,15.5-22.6,27.8-28.3-4.8,17.6-20.5,31.5-19.3,50.9.6,9,7.2,16.7,16.8,13.9s16.4-12.6,21.3-20.7c3.8,7.7,11.7,13,20.5,10.8,8.6-2.1,15-9.9,19.7-16.9,4.8,9.4,15.4,4.4,21.3-.5,8.9-7.2,15.9-16.9,22.2-26.3,12.5-18.6,20-39.3,24.1-61.3a102.763,102.763,0,0,1,9.9,39.5,55.5,55.5,0,0,1-.6,10.8,102.965,102.965,0,0,1-9.4,8.1,91.662,91.662,0,0,1-14.5,9.3c-2.1,1.1-5.1,1.9-6.9,3.4a5.79,5.79,0,0,0-1.1,7.2c1.9,3,6.2,3,9.3,3.1,11.5.6,22.3-4.1,28.2-14.2a38.066,38.066,0,0,0,3.5-8c.5-1.6.6-3,1.8-4.3,1-1,1.9-2.1,2.8-3.1A117.79,117.79,0,0,0,814,498a115.277,115.277,0,0,0,9.3-17.3C825.9,476.8,831.1,467.8,824.1,465.3ZM489.7,414.2c4.8-6.2,11.3-12,18.6-15.2a16.042,16.042,0,0,1,3.1-1c1.2-.2,1.2.1,1.2,1.1,0,3.4-1.3,6.9-2.6,10.1-5.6,13.8-18.3,22.9-32.2,27.1A71.67,71.67,0,0,1,489.7,414.2Zm228.6,97c-1.3,3.7-2.2,7.6-3.7,11.2s-3.2,7.1-5,10.6a78.907,78.907,0,0,1-8.9,14c-2.6,3.2-7.4,8.7-12.2,7.7-5.3-1.1-7.2-8.4-6.8-13a46.154,46.154,0,0,1,4.9-15.8,107.248,107.248,0,0,1,11.3-18.3c4.3-5.7,9-11.9,15.3-15.5,2.6-1.5,7.4-3.6,10.1-1.1,2.5,2.3.5,6.2-.5,8.7C721.1,503.5,719.6,507.3,718.3,511.2Z" transform="translate(0.1 -1.5)" style="fill:#fff"/><path d="M805.2,567.2a5.538,5.538,0,0,0-6.7,4.1C766.4,703.2,649,795.3,513,795.3a293.1,293.1,0,0,1-200.3-78.8,5.52,5.52,0,0,0-7.5,8.1,304.914,304.914,0,0,0,504-150.7A5.4,5.4,0,0,0,805.2,567.2Z" transform="translate(0.1 -1.5)" style="fill:#fff"/><path d="M217.7,452.4a3.4,3.4,0,0,0,1,.1,5.555,5.555,0,0,0,5.4-4.5c25.7-139.2,147.2-240.3,289-240.3,123.3,0,234.3,77.8,276.3,193.7a5.536,5.536,0,1,0,10.4-3.8,304.964,304.964,0,0,0-586.5,48.3A5.582,5.582,0,0,0,217.7,452.4Z" transform="translate(0.1 -1.5)" style="fill:#fff"/></svg>