<svg xmlns="http://www.w3.org/2000/svg" xmlns:xlink="http://www.w3.org/1999/xlink" viewBox="0 0 235.94 364.885"><defs><radialGradient id="a" cx="121.985" cy="-22.999" r="82.249" gradientTransform="matrix(1, 0, 0, 1, -20.655, 36.04)" gradientUnits="userSpaceOnUse"><stop offset="0" stop-color="#ed1c24"/><stop offset="0.651" stop-color="#be1e2d"/><stop offset="0.826" stop-color="#7b1e2d"/><stop offset="1" stop-color="#691e2d"/></radialGradient><linearGradient id="b" x1="119.218" y1="2.326" x2="119.218" y2="0.067" gradientUnits="userSpaceOnUse"><stop offset="0" stop-color="#fff"/><stop offset="1" stop-color="#231f20"/></linearGradient><radialGradient id="c" cx="51.503" cy="7.198" r="113.444" gradientTransform="translate(-8.723 49.917)" xlink:href="#a"/><linearGradient id="d" x1="67.457" y1="42.339" x2="67.457" y2="39.223" xlink:href="#b"/><radialGradient id="e" cx="63.521" cy="221.04" fx="321.64089145252655" fy="221.04036214220469" r="260.727" gradientTransform="translate(41.606 40.977)" gradientUnits="userSpaceOnUse"><stop offset="0" stop-color="#ed1c24"/><stop offset="0.199" stop-color="#7b1e2d"/><stop offset="0.651" stop-color="#be1e2d"/><stop offset="0.826" stop-color="#7b1e2d"/><stop offset="1" stop-color="#691e2d"/></radialGradient><linearGradient id="f" x1="129.813" y1="247.239" x2="129.813" y2="244.123" xlink:href="#b"/><radialGradient id="g" cx="159.777" cy="101.889" r="76.163" gradientUnits="userSpaceOnUse"><stop offset="0" stop-color="#be1e2d"/><stop offset="0.123" stop-color="#bf2231"/><stop offset="0.255" stop-color="#c32f3d"/><stop offset="0.393" stop-color="#c94552"/><stop offset="0.534" stop-color="#d2636e"/><stop offset="0.678" stop-color="#dd8b92"/><stop offset="0.824" stop-color="#ebbabf"/><stop offset="0.968" stop-color="#fbf2f3"/><stop offset="1" stop-color="#fff"/></radialGradient><radialGradient id="h" cx="135.89" cy="14.394" r="131.36" gradientTransform="translate(-7.831 28.588)" gradientUnits="userSpaceOnUse"><stop offset="0" stop-color="#ed1c24" stop-opacity="0.8"/><stop offset="0.651" stop-color="#be1e2d"/><stop offset="0.826" stop-color="#7b1e2d"/><stop offset="1" stop-color="#691e2d"/></radialGradient><linearGradient id="i" x1="156.632" y1="25.869" x2="156.632" y2="22.26" xlink:href="#b"/><radialGradient id="j" cx="37.915" cy="77.441" r="234.213" gradientTransform="matrix(1, 0, 0, 1, 14.323, 46.869)" xlink:href="#a"/></defs><title>資產 3</title><g style="isolation:isolate"><circle cx="119.227" cy="46.006" r="41.605" transform="translate(-7.506 29.563) rotate(-13.707)" style="opacity:0.7000000000000001;fill:url(#a)"/><path d="M110.515,2.678a5.077,5.077,0,0,0,.149-1.146l.022.029V.179h17.086V1.554a5.291,5.291,0,0,0,.149,1.124Z" style="mix-blend-mode:multiply;fill:url(#b)"/><path d="M128.69,1.2V8.571l0-.007c-.7,0-.462-2.646-1.157-2.646s-.462,2.646-1.157,2.646c-.267,0-.4-.389-.5-.869-.158-.771-.233-1.777-.662-1.777-.28,0-.411.431-.511.944-.148.76-.233,1.7-.646,1.7-.7,0-.462-2.646-1.16-2.646s-.462,2.646-1.157,2.646-.693-2.646-1.389-2.646-.7,2.646-1.391,2.646-.7-2.646-1.391-2.646-.7,2.646-1.389,2.646-.462-2.646-1.157-2.646-.462,2.646-1.158,2.646-.462-2.646-1.158-2.646-.228,2.646-.924,2.646-.462-2.646-1.158-2.646-.228,2.646-.924,2.646V1.2a1.36,1.36,0,0,1,1.48-1.2h16.029A1.36,1.36,0,0,1,128.69,1.2Z" style="fill:#f9cd75"/><circle cx="67.468" cy="102.586" r="57.386" transform="translate(-22.387 18.909) rotate(-13.707)" style="opacity:0.9500000000000001;fill:url(#c)"/><path d="M55.453,42.825a7.009,7.009,0,0,0,.205-1.582l.031.04V39.377H79.256v1.9a7.244,7.244,0,0,0,.2,1.551Z" style="mix-blend-mode:multiply;fill:url(#d)"/><path d="M80.521,39.886v10.17l-.005-.01c-.959,0-.638-3.649-1.6-3.649s-.637,3.649-1.6,3.649c-.368,0-.548-.536-.685-1.2-.217-1.064-.321-2.452-.913-2.452-.386,0-.567.595-.7,1.3-.2,1.048-.322,2.347-.892,2.347-.959,0-.637-3.649-1.6-3.649s-.638,3.649-1.6,3.649S69.977,46.4,69.019,46.4s-.96,3.649-1.919,3.649S66.141,46.4,65.182,46.4s-.96,3.649-1.915,3.649-.637-3.649-1.6-3.649-.638,3.649-1.6,3.649-.637-3.649-1.6-3.649-.316,3.649-1.274,3.649-.638-3.649-1.6-3.649-.315,3.649-1.274,3.649V39.886a1.876,1.876,0,0,1,2.041-1.652H78.481A1.876,1.876,0,0,1,80.521,39.886Z" style="fill:#e5e5e5"/><circle cx="129.825" cy="307.486" r="57.386" transform="translate(-69.163 39.52) rotate(-13.707)" style="opacity:0.8;fill:url(#e)"/><path d="M117.809,247.725a7.009,7.009,0,0,0,.205-1.582l.031.04v-1.906h23.568v1.9a7.242,7.242,0,0,0,.2,1.551Z" style="mix-blend-mode:multiply;fill:url(#f)"/><path d="M142.877,244.786v10.17l-.005-.01c-.959,0-.638-3.649-1.6-3.649s-.637,3.649-1.6,3.649c-.368,0-.548-.536-.685-1.2-.217-1.064-.321-2.452-.913-2.452-.386,0-.567.595-.7,1.3-.205,1.048-.322,2.347-.892,2.347-.958,0-.637-3.649-1.6-3.649s-.638,3.649-1.6,3.649-.957-3.649-1.915-3.649-.959,3.649-1.919,3.649-.959-3.649-1.918-3.649-.959,3.649-1.915,3.649-.637-3.649-1.6-3.649-.638,3.649-1.6,3.649-.637-3.649-1.6-3.649-.316,3.649-1.274,3.649-.638-3.649-1.6-3.649-.315,3.649-1.274,3.649V244.786a1.876,1.876,0,0,1,2.041-1.652h22.109A1.876,1.876,0,0,1,142.877,244.786Z" style="fill:#e5e5e5"/><circle cx="159.777" cy="101.889" r="76.163" style="mix-blend-mode:multiply;fill:url(#g)"/><circle cx="156.646" cy="95.63" r="66.448" transform="translate(-18.199 39.842) rotate(-13.707)" style="opacity:0.5;fill:url(#h)"/><path d="M142.732,26.431a8.1,8.1,0,0,0,.238-1.831l.035.046V22.439h27.29v2.2a8.417,8.417,0,0,0,.237,1.8Z" style="mix-blend-mode:multiply;fill:url(#i)"/><path d="M171.76,23.081V34.857l-.006-.011c-1.111,0-.738-4.226-1.849-4.226s-.738,4.226-1.848,4.226c-.426,0-.635-.621-.792-1.387-.251-1.232-.372-2.839-1.057-2.839-.447,0-.656.689-.816,1.508-.237,1.213-.373,2.718-1.033,2.718-1.11,0-.737-4.226-1.852-4.226s-.738,4.226-1.848,4.226-1.107-4.226-2.218-4.226-1.111,4.226-2.222,4.226S155.109,30.62,154,30.62s-1.111,4.226-2.218,4.226-.738-4.226-1.848-4.226-.739,4.226-1.849,4.226-.738-4.226-1.849-4.226-.365,4.226-1.476,4.226-.739-4.226-1.85-4.226-.365,4.226-1.476,4.226V23.081a2.173,2.173,0,0,1,2.363-1.913h25.6A2.172,2.172,0,0,1,171.76,23.081Z" style="fill:#efcaaf"/><path d="M167.264,14.168V26.459c-.251-1.232-.372-2.839-1.057-2.839-.447,0-.656.689-.816,1.508V14.168Z" style="fill:#f7fc97"/><circle cx="91.67" cy="196.932" r="91.648" transform="translate(-44.054 27.331) rotate(-13.707)" style="opacity:0.9500000000000001;fill:url(#j)"/><path d="M112.516,97.213v16.243l-.009-.015c-1.532,0-1.018-5.829-2.55-5.829s-1.018,5.829-2.549,5.829c-.587,0-.876-.856-1.092-1.914-.348-1.7-.514-3.915-1.458-3.915-.617,0-.906.95-1.126,2.08-.328,1.674-.514,3.749-1.424,3.749-1.532,0-1.018-5.829-2.555-5.829s-1.018,5.829-2.55,5.829-1.527-5.829-3.059-5.829-1.532,5.829-3.063,5.829-1.532-5.829-3.064-5.829-1.532,5.829-3.059,5.829-1.018-5.829-2.549-5.829-1.019,5.829-2.55,5.829-1.018-5.829-2.55-5.829-.5,5.829-2.035,5.829-1.019-5.829-2.55-5.829-.5,5.829-2.036,5.829V97.213c0-1.458,1.458-2.638,3.259-2.638h35.31C111.058,94.576,112.516,95.755,112.516,97.213Z" style="fill:#f9cd75"/></g></svg>