<svg xmlns="http://www.w3.org/2000/svg" xmlns:xlink="http://www.w3.org/1999/xlink" viewBox="0 0 189.593 244.677"><defs><radialGradient id="a" cx="44.374" cy="100.859" r="135.421" gradientTransform="matrix(0, 1, -1, 0, 276.644, 1.497)" gradientUnits="userSpaceOnUse"><stop offset="0" stop-color="#f33" stop-opacity="0.9"/><stop offset="0.651" stop-color="#be1e2d"/><stop offset="0.826" stop-color="#7b1e2d"/><stop offset="1" stop-color="#691e2d"/></radialGradient><linearGradient id="b" x1="91.655" y1="56.789" x2="91.655" y2="51.811" gradientUnits="userSpaceOnUse"><stop offset="0" stop-color="#fff"/><stop offset="1" stop-color="#231f20"/></linearGradient></defs><title>資產 1</title><g style="isolation:isolate"><circle cx="123.134" cy="74.462" r="66.449" transform="matrix(0.438, -0.899, 0.899, 0.438, 2.291, 152.594)" style="opacity:0.9;fill:url(#a)"/><circle cx="91.673" cy="153.007" r="91.648" transform="matrix(0.972, -0.237, 0.237, 0.972, -33.649, 26.08)" style="fill:#ec5253;opacity:0.96"/><path d="M72.483,57.564a11.17,11.17,0,0,0,.328-2.525l.049.063V52.058H110.5v3.029a11.7,11.7,0,0,0,.328,2.476Z" transform="translate(-0.004)" style="mix-blend-mode:multiply;fill:url(#b)"/><path d="M112.519,53.288V69.531l-.01-.015c-1.531,0-1.018-5.829-2.549-5.829s-1.019,5.829-2.55,5.829c-.587,0-.876-.856-1.092-1.913-.348-1.7-.514-3.916-1.458-3.916-.617,0-.906.95-1.126,2.08-.327,1.674-.514,3.749-1.424,3.749-1.532,0-1.018-5.829-2.555-5.829s-1.018,5.829-2.55,5.829-1.527-5.829-3.059-5.829-1.531,5.829-3.063,5.829-1.532-5.829-3.063-5.829-1.531,5.829-3.059,5.829-1.018-5.829-2.549-5.829-1.019,5.829-2.551,5.829-1.018-5.829-2.55-5.829-.5,5.829-2.035,5.829-1.018-5.829-2.55-5.829-.5,5.829-2.036,5.829V53.288c0-1.458,1.458-2.638,3.259-2.638h35.31C111.062,50.65,112.519,51.83,112.519,53.288Z" transform="translate(-0.004)" style="fill:#e5e5e5"/><path d="M138.247,1.913V13.69l-.007-.011c-1.11,0-.738-4.226-1.849-4.226s-.737,4.226-1.849,4.226c-.426,0-.635-.621-.791-1.387-.252-1.232-.373-2.839-1.058-2.839-.446,0-.656.689-.815,1.508-.238,1.213-.373,2.718-1.033,2.718-1.11,0-.737-4.226-1.852-4.226s-.738,4.226-1.849,4.226-1.107-4.226-2.218-4.226-1.111,4.226-2.222,4.226-1.11-4.226-2.221-4.226-1.11,4.226-2.218,4.226-.738-4.226-1.848-4.226-.739,4.226-1.85,4.226-.738-4.226-1.849-4.226-.365,4.226-1.476,4.226-.738-4.226-1.85-4.226-.365,4.226-1.476,4.226V1.913A2.173,2.173,0,0,1,110.284,0h25.6A2.172,2.172,0,0,1,138.247,1.913Z" transform="translate(-0.004)" style="fill:#efcaaf"/></g></svg>